<svg width="512" height="217" viewBox="0 0 512 217" fill="none" xmlns="http://www.w3.org/2000/svg">
<g clip-path="url(#clip0_6_340)">
<rect width="512" height="217" rx="24" fill="#020308"/>
<g filter="url(#filter0_f_6_340)">
<ellipse cx="154.5" cy="-262" rx="299.5" ry="289" fill="#0B225C"/>
</g>
<g filter="url(#filter1_i_6_340)">
<rect x="232" y="27" width="164" height="164" rx="82" fill="url(#paint0_linear_6_340)"/>
<rect x="232.75" y="27.75" width="162.5" height="162.5" rx="81.25" stroke="white" stroke-opacity="0.06" stroke-width="1.5"/>
<path fill-rule="evenodd" clip-rule="evenodd" d="M313.5 77.6199V77.6199C331.109 77.6199 345.38 91.8908 345.38 109.5V109.5C345.38 127.109 331.109 141.38 313.5 141.38V141.38C295.891 141.38 281.62 127.109 281.62 109.5V109.5C281.62 91.8908 295.891 77.6199 313.5 77.6199Z" stroke="#1A5CFF" stroke-width="7" stroke-linecap="round" stroke-linejoin="round"/>
<path d="M313.5 111.27V93.5623" stroke="#1A5CFF" stroke-width="7" stroke-linecap="round" stroke-linejoin="round"/>
<path d="M313.495 123.846C313.105 123.846 312.789 124.162 312.794 124.553C312.794 124.943 313.109 125.259 313.5 125.259C313.891 125.259 314.206 124.943 314.206 124.553C314.206 124.167 313.891 123.846 313.495 123.846" stroke="#1A5CFF" stroke-width="7" stroke-linecap="round" stroke-linejoin="round"/>
<path d="M352.702 80.106C365.781 97.4891 365.781 121.506 352.702 138.889" stroke="#1A5CFF" stroke-width="7" stroke-linecap="round" stroke-linejoin="round"/>
<path d="M274.265 138.894C261.186 121.511 261.186 97.4938 274.265 80.1106" stroke="#1A5CFF" stroke-width="7" stroke-linecap="round" stroke-linejoin="round"/>
</g>
<g filter="url(#filter2_i_6_340)">
<rect x="116" y="27" width="164" height="164" rx="82" fill="url(#paint1_linear_6_340)"/>
<rect x="116.75" y="27.75" width="162.5" height="162.5" rx="81.25" stroke="white" stroke-opacity="0.06" stroke-width="1.5"/>
<path d="M238.526 127.408L237.501 123.221L236.488 119.076L235.582 115.37L233.487 106.804L227.519 108.711L222.593 110.286L222.368 110.359L216.487 112.238L221.538 106.975L221.93 106.564L219.509 92.9694L217.871 91.9751L215.897 90.7832V79.2682L214.453 77.9942L206.252 70.7727L204.239 69H191.748L189.736 70.7727L181.535 77.9942L180.091 79.2682V90.7832L178.117 91.9751L176.478 92.9694L174.058 106.564L174.45 106.975L179.501 112.238L173.62 110.359L173.395 110.286L168.469 108.711L162.501 106.804L160.406 115.37L159.499 119.076L158.487 123.221L157.462 127.408L157 129.305L162.966 131.215L168.123 132.863L169.312 133.243L172.562 134.283L174.49 133.118L175.575 128.685L176.588 124.54L174.66 123.926L171.172 122.81L170.625 122.637L170.081 124.854L169.613 126.775L166.11 125.656L164.456 125.13L165.471 120.986L166.374 117.279L171.531 118.927L171.844 119.028L177.497 120.837L180.097 121.667L182.304 122.372L188.103 121.196L190.97 120.615L190.332 121.135H190.328L190.231 121.217L187.498 127.812L187.394 128.064L185.102 133.589L182.329 140.285L191.998 143.526L196.182 144.928L200.858 146.497L205.583 148.081L207.724 148.799L210.5 142.109L212.896 136.326L213.449 134.991L214.961 131.345L213.805 129.01H213.802L208.803 127.332L204.127 125.763L203.233 127.925L201.609 131.841L201.354 132.455L203.856 133.294L206.027 134.021L204.401 137.95L203.634 139.804L198.958 138.232L194.774 136.834L197.17 131.05L197.316 130.701L199.946 124.361L201.153 121.445L201.77 119.955L207.897 121.196L213.696 122.372L215.903 121.667L218.503 120.837L224.156 119.028L224.469 118.927L229.626 117.279L230.529 120.986L231.544 125.13L229.89 125.656L226.387 126.775L225.919 124.854L225.375 122.637L224.828 122.81L221.34 123.926L219.412 124.54L220.425 128.685L221.51 133.115L223.438 134.283L226.688 133.243L227.877 132.863L233.034 131.215L239 129.305L238.538 127.408H238.526ZM183.15 96.1742L186.33 92.9754L192.551 101.094L190.164 103.408L183.15 96.1742ZM205.808 103.405L203.421 101.091L209.643 92.9724L212.823 96.1712L205.808 103.405Z" fill="#1A5CFF"/>
</g>
<path d="M396 109H512" stroke="#274284" stroke-width="1.5" stroke-dasharray="4 4"/>
<path d="M-4.17233e-06 117H116" stroke="#274284" stroke-width="1.5" stroke-dasharray="4 4"/>
<path d="M412 110L412 0" stroke="#274284" stroke-width="1.5" stroke-dasharray="4 4"/>
<path d="M28 110L28 0" stroke="#274284" stroke-width="1.5" stroke-dasharray="4 4"/>
<path d="M91 227L91 117" stroke="#274284" stroke-width="1.5" stroke-dasharray="4 4"/>
<path d="M478 220L478 110" stroke="#274284" stroke-width="1.5" stroke-dasharray="4 4"/>
<g filter="url(#filter3_i_6_340)">
<rect x="11" y="45" width="35" height="35" rx="17.5" fill="url(#paint2_linear_6_340)"/>
<rect x="11.1601" y="45.1601" width="34.6799" height="34.6799" rx="17.3399" stroke="white" stroke-opacity="0.06" stroke-width="0.320122"/>
<path d="M37.1488 66.4284L36.9301 65.5349L36.714 64.6504L36.5206 63.8594L36.0735 62.0314L34.7997 62.4382L33.7484 62.7744L33.7004 62.7899L32.4454 63.191L33.5233 62.0677L33.607 61.9801L33.0904 59.0788L32.7407 58.8666L32.3195 58.6122V56.1548L32.0113 55.8829L30.2612 54.3417L29.8316 53.9634H27.1658L26.7362 54.3417L24.9861 55.8829L24.6779 56.1548V58.6122L24.2567 58.8666L23.907 59.0788L23.3904 61.9801L23.4741 62.0677L24.552 63.191L23.297 62.7899L23.249 62.7744L22.1977 62.4382L20.9239 62.0314L20.4768 63.8594L20.2834 64.6504L20.0673 65.5349L19.8486 66.4284L19.75 66.8334L21.0232 67.2409L22.1237 67.5926L22.3775 67.6737L23.0712 67.8956L23.4826 67.6471L23.7142 66.701L23.9303 65.8165L23.5189 65.6854L22.7746 65.4473L22.6578 65.4103L22.5416 65.8833L22.4417 66.2935L21.6942 66.0547L21.3411 65.9424L21.5579 65.0579L21.7506 64.2669L22.8512 64.6186L22.918 64.64L24.1244 65.0261L24.6792 65.2033L25.1503 65.3538L26.3878 65.1027L26.9997 64.9787L26.8634 65.0897H26.8628L26.842 65.1072L26.2586 66.5147L26.2366 66.5686L25.7473 67.7477L25.1555 69.1766L27.219 69.8683L28.1119 70.1675L29.11 70.5023L30.1184 70.8404L30.5752 70.9936L31.1677 69.5659L31.679 68.3317L31.7971 68.0468L32.1197 67.2688L31.8731 66.7704H31.8724L30.8056 66.4122L29.8076 66.0774L29.6168 66.5387L29.2703 67.3745L29.2158 67.5056L29.7498 67.6847L30.2131 67.8398L29.866 68.6782L29.7024 69.0741L28.7044 68.7386L27.8115 68.4401L28.3228 67.2058L28.354 67.1312L28.9153 65.7782L29.1729 65.1559L29.3047 64.8379L30.6122 65.1027L31.8497 65.3538L32.3208 65.2033L32.8756 65.0261L34.082 64.64L34.1488 64.6186L35.2494 64.2669L35.4421 65.0579L35.6589 65.9424L35.3058 66.0547L34.5583 66.2935L34.4584 65.8833L34.3422 65.4103L34.2254 65.4473L33.4811 65.6854L33.0697 65.8165L33.2858 66.701L33.5174 67.6464L33.9288 67.8956L34.6225 67.6737L34.8763 67.5926L35.9768 67.2409L37.25 66.8334L37.1514 66.4284H37.1488ZM25.3307 59.7628L26.0095 59.0801L27.3371 60.8127L26.8277 61.3065L25.3307 59.7628ZM30.1664 61.3059L29.657 60.8121L30.9847 59.0794L31.6635 59.7621L30.1664 61.3059Z" fill="#1A5CFF"/>
</g>
<g filter="url(#filter4_i_6_340)">
<rect x="74" y="127" width="35" height="35" rx="17.5" fill="url(#paint3_linear_6_340)"/>
<rect x="74.1601" y="127.16" width="34.6799" height="34.6799" rx="17.3399" stroke="white" stroke-opacity="0.06" stroke-width="0.320122"/>
<path d="M100.149 148.428L99.9301 147.535L99.714 146.65L99.5206 145.859L99.0735 144.031L97.7997 144.438L96.7484 144.774L96.7004 144.79L95.4454 145.191L96.5233 144.068L96.607 143.98L96.0904 141.079L95.7407 140.867L95.3195 140.612V138.155L95.0113 137.883L93.2612 136.342L92.8316 135.963H90.1658L89.7362 136.342L87.9861 137.883L87.6779 138.155V140.612L87.2567 140.867L86.907 141.079L86.3904 143.98L86.4741 144.068L87.552 145.191L86.297 144.79L86.249 144.774L85.1977 144.438L83.9239 144.031L83.4768 145.859L83.2834 146.65L83.0673 147.535L82.8486 148.428L82.75 148.833L84.0232 149.241L85.1237 149.593L85.3775 149.674L86.0712 149.896L86.4826 149.647L86.7142 148.701L86.9303 147.816L86.5189 147.685L85.7746 147.447L85.6578 147.41L85.5416 147.883L85.4417 148.293L84.6942 148.055L84.3411 147.942L84.5579 147.058L84.7506 146.267L85.8512 146.619L85.918 146.64L87.1244 147.026L87.6792 147.203L88.1503 147.354L89.3878 147.103L89.9997 146.979L89.8634 147.09H89.8628L89.842 147.107L89.2586 148.515L89.2366 148.569L88.7473 149.748L88.1555 151.177L90.219 151.868L91.1119 152.167L92.11 152.502L93.1184 152.84L93.5752 152.994L94.1677 151.566L94.679 150.332L94.7971 150.047L95.1197 149.269L94.8731 148.77H94.8724L93.8056 148.412L92.8076 148.077L92.6168 148.539L92.2703 149.375L92.2158 149.506L92.7498 149.685L93.2131 149.84L92.866 150.678L92.7024 151.074L91.7044 150.739L90.8115 150.44L91.3228 149.206L91.354 149.131L91.9153 147.778L92.1729 147.156L92.3047 146.838L93.6122 147.103L94.8497 147.354L95.3208 147.203L95.8756 147.026L97.082 146.64L97.1488 146.619L98.2494 146.267L98.4421 147.058L98.6589 147.942L98.3058 148.055L97.5583 148.293L97.4584 147.883L97.3422 147.41L97.2254 147.447L96.4811 147.685L96.0697 147.816L96.2858 148.701L96.5174 149.646L96.9288 149.896L97.6225 149.674L97.8763 149.593L98.9768 149.241L100.25 148.833L100.151 148.428H100.149ZM88.3307 141.763L89.0095 141.08L90.3371 142.813L89.8277 143.307L88.3307 141.763ZM93.1664 143.306L92.657 142.812L93.9847 141.079L94.6635 141.762L93.1664 143.306Z" fill="#1A5CFF"/>
</g>
<g filter="url(#filter5_i_6_340)">
<rect x="396" y="27" width="35" height="35" rx="17.5" fill="url(#paint4_linear_6_340)"/>
<rect x="396.16" y="27.1601" width="34.6799" height="34.6799" rx="17.3399" stroke="white" stroke-opacity="0.06" stroke-width="0.320122"/>
<path d="M422.149 48.4284L421.93 47.5349L421.714 46.6504L421.521 45.8594L421.074 44.0314L419.8 44.4382L418.748 44.7744L418.7 44.7899L417.445 45.191L418.523 44.0677L418.607 43.9801L418.09 41.0788L417.741 40.8666L417.32 40.6122V38.1548L417.011 37.8829L415.261 36.3417L414.832 35.9634H412.166L411.736 36.3417L409.986 37.8829L409.678 38.1548V40.6122L409.257 40.8666L408.907 41.0788L408.39 43.9801L408.474 44.0677L409.552 45.191L408.297 44.7899L408.249 44.7744L407.198 44.4382L405.924 44.0314L405.477 45.8594L405.283 46.6504L405.067 47.5349L404.849 48.4284L404.75 48.8334L406.023 49.2409L407.124 49.5926L407.377 49.6737L408.071 49.8956L408.483 49.6471L408.714 48.701L408.93 47.8165L408.519 47.6854L407.775 47.4473L407.658 47.4103L407.542 47.8833L407.442 48.2935L406.694 48.0547L406.341 47.9424L406.558 47.0579L406.751 46.2669L407.851 46.6186L407.918 46.64L409.124 47.0261L409.679 47.2033L410.15 47.3538L411.388 47.1027L412 46.9787L411.863 47.0897H411.863L411.842 47.1072L411.259 48.5147L411.237 48.5686L410.747 49.7477L410.155 51.1766L412.219 51.8683L413.112 52.1675L414.11 52.5023L415.118 52.8404L415.575 52.9936L416.168 51.5659L416.679 50.3317L416.797 50.0468L417.12 49.2688L416.873 48.7704H416.872L415.806 48.4122L414.808 48.0774L414.617 48.5387L414.27 49.3745L414.216 49.5056L414.75 49.6847L415.213 49.8398L414.866 50.6782L414.702 51.0741L413.704 50.7386L412.811 50.4401L413.323 49.2058L413.354 49.1312L413.915 47.7782L414.173 47.1559L414.305 46.8379L415.612 47.1027L416.85 47.3538L417.321 47.2033L417.876 47.0261L419.082 46.64L419.149 46.6186L420.249 46.2669L420.442 47.0579L420.659 47.9424L420.306 48.0547L419.558 48.2935L419.458 47.8833L419.342 47.4103L419.225 47.4473L418.481 47.6854L418.07 47.8165L418.286 48.701L418.517 49.6464L418.929 49.8956L419.623 49.6737L419.876 49.5926L420.977 49.2409L422.25 48.8334L422.151 48.4284H422.149ZM410.331 41.7628L411.009 41.0801L412.337 42.8127L411.828 43.3065L410.331 41.7628ZM415.166 43.3059L414.657 42.8121L415.985 41.0794L416.663 41.7621L415.166 43.3059Z" fill="#1A5CFF"/>
</g>
<g filter="url(#filter6_i_6_340)">
<rect x="461" y="94" width="35" height="35" rx="17.5" fill="url(#paint5_linear_6_340)"/>
<rect x="461.16" y="94.1601" width="34.6799" height="34.6799" rx="17.3399" stroke="white" stroke-opacity="0.06" stroke-width="0.320122"/>
<path d="M487.149 115.428L486.93 114.535L486.714 113.65L486.521 112.859L486.074 111.031L484.8 111.438L483.748 111.774L483.7 111.79L482.445 112.191L483.523 111.068L483.607 110.98L483.09 108.079L482.741 107.867L482.32 107.612V105.155L482.011 104.883L480.261 103.342L479.832 102.963H477.166L476.736 103.342L474.986 104.883L474.678 105.155V107.612L474.257 107.867L473.907 108.079L473.39 110.98L473.474 111.068L474.552 112.191L473.297 111.79L473.249 111.774L472.198 111.438L470.924 111.031L470.477 112.859L470.283 113.65L470.067 114.535L469.849 115.428L469.75 115.833L471.023 116.241L472.124 116.593L472.377 116.674L473.071 116.896L473.483 116.647L473.714 115.701L473.93 114.816L473.519 114.685L472.775 114.447L472.658 114.41L472.542 114.883L472.442 115.293L471.694 115.055L471.341 114.942L471.558 114.058L471.751 113.267L472.851 113.619L472.918 113.64L474.124 114.026L474.679 114.203L475.15 114.354L476.388 114.103L477 113.979L476.863 114.09H476.863L476.842 114.107L476.259 115.515L476.237 115.569L475.747 116.748L475.155 118.177L477.219 118.868L478.112 119.167L479.11 119.502L480.118 119.84L480.575 119.994L481.168 118.566L481.679 117.332L481.797 117.047L482.12 116.269L481.873 115.77H481.872L480.806 115.412L479.808 115.077L479.617 115.539L479.27 116.375L479.216 116.506L479.75 116.685L480.213 116.84L479.866 117.678L479.702 118.074L478.704 117.739L477.811 117.44L478.323 116.206L478.354 116.131L478.915 114.778L479.173 114.156L479.305 113.838L480.612 114.103L481.85 114.354L482.321 114.203L482.876 114.026L484.082 113.64L484.149 113.619L485.249 113.267L485.442 114.058L485.659 114.942L485.306 115.055L484.558 115.293L484.458 114.883L484.342 114.41L484.225 114.447L483.481 114.685L483.07 114.816L483.286 115.701L483.517 116.646L483.929 116.896L484.623 116.674L484.876 116.593L485.977 116.241L487.25 115.833L487.151 115.428H487.149ZM475.331 108.763L476.009 108.08L477.337 109.813L476.828 110.307L475.331 108.763ZM480.166 110.306L479.657 109.812L480.985 108.079L481.663 108.762L480.166 110.306Z" fill="#1A5CFF"/>
</g>
</g>
<rect x="0.75" y="0.75" width="510.5" height="215.5" rx="23.25" stroke="white" stroke-opacity="0.08" stroke-width="1.5"/>
<defs>
<filter id="filter0_f_6_340" x="-645" y="-1051" width="1599" height="1578" filterUnits="userSpaceOnUse" color-interpolation-filters="sRGB">
<feFlood flood-opacity="0" result="BackgroundImageFix"/>
<feBlend mode="normal" in="SourceGraphic" in2="BackgroundImageFix" result="shape"/>
<feGaussianBlur stdDeviation="250" result="effect1_foregroundBlur_6_340"/>
</filter>
<filter id="filter1_i_6_340" x="232" y="27" width="164" height="168" filterUnits="userSpaceOnUse" color-interpolation-filters="sRGB">
<feFlood flood-opacity="0" result="BackgroundImageFix"/>
<feBlend mode="normal" in="SourceGraphic" in2="BackgroundImageFix" result="shape"/>
<feColorMatrix in="SourceAlpha" type="matrix" values="0 0 0 0 0 0 0 0 0 0 0 0 0 0 0 0 0 0 127 0" result="hardAlpha"/>
<feOffset dy="4"/>
<feGaussianBlur stdDeviation="16"/>
<feComposite in2="hardAlpha" operator="arithmetic" k2="-1" k3="1"/>
<feColorMatrix type="matrix" values="0 0 0 0 1 0 0 0 0 1 0 0 0 0 1 0 0 0 0.04 0"/>
<feBlend mode="normal" in2="shape" result="effect1_innerShadow_6_340"/>
</filter>
<filter id="filter2_i_6_340" x="116" y="27" width="164" height="168" filterUnits="userSpaceOnUse" color-interpolation-filters="sRGB">
<feFlood flood-opacity="0" result="BackgroundImageFix"/>
<feBlend mode="normal" in="SourceGraphic" in2="BackgroundImageFix" result="shape"/>
<feColorMatrix in="SourceAlpha" type="matrix" values="0 0 0 0 0 0 0 0 0 0 0 0 0 0 0 0 0 0 127 0" result="hardAlpha"/>
<feOffset dy="4"/>
<feGaussianBlur stdDeviation="16"/>
<feComposite in2="hardAlpha" operator="arithmetic" k2="-1" k3="1"/>
<feColorMatrix type="matrix" values="0 0 0 0 1 0 0 0 0 1 0 0 0 0 1 0 0 0 0.04 0"/>
<feBlend mode="normal" in2="shape" result="effect1_innerShadow_6_340"/>
</filter>
<filter id="filter3_i_6_340" x="11" y="45" width="35" height="35.8537" filterUnits="userSpaceOnUse" color-interpolation-filters="sRGB">
<feFlood flood-opacity="0" result="BackgroundImageFix"/>
<feBlend mode="normal" in="SourceGraphic" in2="BackgroundImageFix" result="shape"/>
<feColorMatrix in="SourceAlpha" type="matrix" values="0 0 0 0 0 0 0 0 0 0 0 0 0 0 0 0 0 0 127 0" result="hardAlpha"/>
<feOffset dy="0.853659"/>
<feGaussianBlur stdDeviation="3.41463"/>
<feComposite in2="hardAlpha" operator="arithmetic" k2="-1" k3="1"/>
<feColorMatrix type="matrix" values="0 0 0 0 1 0 0 0 0 1 0 0 0 0 1 0 0 0 0.04 0"/>
<feBlend mode="normal" in2="shape" result="effect1_innerShadow_6_340"/>
</filter>
<filter id="filter4_i_6_340" x="74" y="127" width="35" height="35.8537" filterUnits="userSpaceOnUse" color-interpolation-filters="sRGB">
<feFlood flood-opacity="0" result="BackgroundImageFix"/>
<feBlend mode="normal" in="SourceGraphic" in2="BackgroundImageFix" result="shape"/>
<feColorMatrix in="SourceAlpha" type="matrix" values="0 0 0 0 0 0 0 0 0 0 0 0 0 0 0 0 0 0 127 0" result="hardAlpha"/>
<feOffset dy="0.853659"/>
<feGaussianBlur stdDeviation="3.41463"/>
<feComposite in2="hardAlpha" operator="arithmetic" k2="-1" k3="1"/>
<feColorMatrix type="matrix" values="0 0 0 0 1 0 0 0 0 1 0 0 0 0 1 0 0 0 0.04 0"/>
<feBlend mode="normal" in2="shape" result="effect1_innerShadow_6_340"/>
</filter>
<filter id="filter5_i_6_340" x="396" y="27" width="35" height="35.8537" filterUnits="userSpaceOnUse" color-interpolation-filters="sRGB">
<feFlood flood-opacity="0" result="BackgroundImageFix"/>
<feBlend mode="normal" in="SourceGraphic" in2="BackgroundImageFix" result="shape"/>
<feColorMatrix in="SourceAlpha" type="matrix" values="0 0 0 0 0 0 0 0 0 0 0 0 0 0 0 0 0 0 127 0" result="hardAlpha"/>
<feOffset dy="0.853659"/>
<feGaussianBlur stdDeviation="3.41463"/>
<feComposite in2="hardAlpha" operator="arithmetic" k2="-1" k3="1"/>
<feColorMatrix type="matrix" values="0 0 0 0 1 0 0 0 0 1 0 0 0 0 1 0 0 0 0.04 0"/>
<feBlend mode="normal" in2="shape" result="effect1_innerShadow_6_340"/>
</filter>
<filter id="filter6_i_6_340" x="461" y="94" width="35" height="35.8537" filterUnits="userSpaceOnUse" color-interpolation-filters="sRGB">
<feFlood flood-opacity="0" result="BackgroundImageFix"/>
<feBlend mode="normal" in="SourceGraphic" in2="BackgroundImageFix" result="shape"/>
<feColorMatrix in="SourceAlpha" type="matrix" values="0 0 0 0 0 0 0 0 0 0 0 0 0 0 0 0 0 0 127 0" result="hardAlpha"/>
<feOffset dy="0.853659"/>
<feGaussianBlur stdDeviation="3.41463"/>
<feComposite in2="hardAlpha" operator="arithmetic" k2="-1" k3="1"/>
<feColorMatrix type="matrix" values="0 0 0 0 1 0 0 0 0 1 0 0 0 0 1 0 0 0 0.04 0"/>
<feBlend mode="normal" in2="shape" result="effect1_innerShadow_6_340"/>
</filter>
<linearGradient id="paint0_linear_6_340" x1="155" y1="27" x2="516.5" y2="234" gradientUnits="userSpaceOnUse">
<stop stop-color="#242631"/>
<stop offset="1" stop-color="#04050B"/>
</linearGradient>
<linearGradient id="paint1_linear_6_340" x1="39" y1="27" x2="400.5" y2="234" gradientUnits="userSpaceOnUse">
<stop stop-color="#242631"/>
<stop offset="1" stop-color="#04050B"/>
</linearGradient>
<linearGradient id="paint2_linear_6_340" x1="-5.43293" y1="45" x2="71.7165" y2="89.1768" gradientUnits="userSpaceOnUse">
<stop stop-color="#242631"/>
<stop offset="1" stop-color="#04050B"/>
</linearGradient>
<linearGradient id="paint3_linear_6_340" x1="57.5671" y1="127" x2="134.716" y2="171.177" gradientUnits="userSpaceOnUse">
<stop stop-color="#242631"/>
<stop offset="1" stop-color="#04050B"/>
</linearGradient>
<linearGradient id="paint4_linear_6_340" x1="379.567" y1="27" x2="456.716" y2="71.1768" gradientUnits="userSpaceOnUse">
<stop stop-color="#242631"/>
<stop offset="1" stop-color="#04050B"/>
</linearGradient>
<linearGradient id="paint5_linear_6_340" x1="444.567" y1="94" x2="521.716" y2="138.177" gradientUnits="userSpaceOnUse">
<stop stop-color="#242631"/>
<stop offset="1" stop-color="#04050B"/>
</linearGradient>
<clipPath id="clip0_6_340">
<rect width="512" height="217" rx="24" fill="white"/>
</clipPath>
</defs>
</svg>
