<svg width="73" height="73" viewBox="0 0 73 73" fill="none" xmlns="http://www.w3.org/2000/svg">
<g filter="url(#filter0_d_6_511)">
<path d="M23.8332 21.247C25.2932 20.6995 28.1828 21.0341 28.9432 22.6766C29.7037 24.3191 30.1599 26.4482 30.1903 25.9312C30.1321 24.3595 30.2649 22.7866 30.5857 21.247C30.9238 20.2609 31.6984 19.4863 32.6845 19.1482C33.5888 18.8622 34.549 18.7996 35.4828 18.9657C36.427 19.1601 37.2633 19.7031 37.8249 20.4866C38.5365 22.2603 38.9378 24.1431 39.0112 26.0528C39.0868 24.4233 39.3626 22.8092 39.8324 21.247C40.3407 20.5308 41.0829 20.0145 41.9312 19.787C42.9367 19.6031 43.9673 19.6031 44.9728 19.787C45.7983 20.0609 46.5201 20.581 47.0412 21.2774C47.6872 22.89 48.0772 24.5936 48.197 26.3266C48.197 26.7524 48.4099 25.1403 49.0791 24.0757C49.6166 22.4799 51.3461 21.6219 52.942 22.1595C54.5379 22.6971 55.3958 24.4265 54.8582 26.0224C54.8582 27.9995 54.8582 27.9082 54.8582 29.2466C54.8582 30.5849 54.8582 31.7712 54.8582 32.8966C54.7487 34.6766 54.5046 36.4458 54.1282 38.1891C53.6003 39.7322 52.8635 41.1956 51.9382 42.5387C50.4617 44.1813 49.2415 46.0374 48.3187 48.0441C48.0935 49.0418 47.9914 50.0632 48.0145 51.0857C48.0114 52.0306 48.1342 52.9716 48.3795 53.8841C47.1359 54.0169 45.8818 54.0169 44.6382 53.8841C43.452 53.7016 41.992 51.3291 41.5966 50.5991C41.4009 50.2071 41.0005 49.9594 40.5624 49.9594C40.1243 49.9594 39.7239 50.2071 39.5282 50.5991C38.8591 51.7549 37.3687 53.8537 36.4866 53.9753C34.4487 54.2187 30.2207 53.9753 26.9357 53.9753C26.9357 53.9753 27.5137 50.9337 26.2362 49.8387C24.9587 48.7437 23.7116 47.4662 22.7687 46.6145L20.2441 43.8162C18.4638 42.1636 17.161 40.0623 16.4724 37.7328C15.8337 34.8737 15.8945 33.5049 16.4724 32.3491C17.0618 31.3946 17.9823 30.6908 19.0578 30.372C19.9514 30.2099 20.8712 30.2726 21.7345 30.5545C22.3315 30.8044 22.8474 31.2151 23.2249 31.7407C23.9245 32.6837 24.1678 33.1399 23.8637 32.1057C23.5595 31.0716 22.8903 30.3112 22.5557 29.0641C21.9044 27.5913 21.5133 26.0167 21.3999 24.4103C21.5246 22.9691 22.5309 21.7567 23.9245 21.3687" fill="white"/>
<path fill-rule="evenodd" clip-rule="evenodd" d="M23.8332 21.247C25.2932 20.6995 28.1828 21.0341 28.9432 22.6766C29.7037 24.3191 30.1599 26.4482 30.1903 25.9312C30.1321 24.3595 30.2649 22.7866 30.5857 21.247C30.9238 20.2609 31.6984 19.4863 32.6845 19.1482C33.5888 18.8622 34.549 18.7996 35.4828 18.9657C36.427 19.1601 37.2633 19.7031 37.8249 20.4866C38.5365 22.2603 38.9378 24.1431 39.0112 26.0528C39.0868 24.4233 39.3626 22.8092 39.8324 21.247C40.3407 20.5308 41.0829 20.0145 41.9312 19.787C42.9367 19.6031 43.9673 19.6031 44.9728 19.787C45.7983 20.0609 46.5201 20.581 47.0412 21.2774C47.6872 22.89 48.0772 24.5936 48.197 26.3266C48.197 26.7524 48.4099 25.1403 49.0791 24.0757C49.6166 22.4799 51.3461 21.6219 52.942 22.1595C54.5379 22.6971 55.3958 24.4265 54.8582 26.0224C54.8582 27.9995 54.8582 27.9082 54.8582 29.2466C54.8582 30.5849 54.8582 31.7712 54.8582 32.8966C54.7487 34.6766 54.5046 36.4458 54.1282 38.1891C53.6003 39.7322 52.8635 41.1956 51.9382 42.5387C50.4617 44.1813 49.2415 46.0374 48.3187 48.0441C48.0935 49.0418 47.9914 50.0632 48.0145 51.0857C48.0114 52.0306 48.1342 52.9716 48.3795 53.8841C47.1359 54.0169 45.8818 54.0169 44.6382 53.8841C43.452 53.7016 41.992 51.3291 41.5966 50.5991C41.4009 50.2071 41.0005 49.9594 40.5624 49.9594C40.1243 49.9594 39.7239 50.2071 39.5282 50.5991C38.8591 51.7549 37.3687 53.8537 36.4866 53.9753C34.4487 54.2187 30.2207 53.9753 26.9357 53.9753C26.9357 53.9753 27.5137 50.9337 26.2362 49.8387C24.9587 48.7437 23.7116 47.4662 22.7687 46.6145L20.2441 43.8162C18.4638 42.1636 17.161 40.0623 16.4724 37.7328C15.8337 34.8737 15.8945 33.5049 16.4724 32.3491C17.0618 31.3946 17.9823 30.6908 19.0578 30.372C19.9514 30.2099 20.8712 30.2726 21.7345 30.5545C22.3315 30.8044 22.8474 31.2151 23.2249 31.7407C23.9245 32.6837 24.1678 33.1399 23.8637 32.1057C23.5595 31.0716 22.8903 30.3112 22.5557 29.0641C21.9044 27.5913 21.5133 26.0167 21.3999 24.4103C21.4621 22.948 22.4358 21.6822 23.8332 21.247Z" stroke="black" stroke-width="2.28125" stroke-linejoin="round"/>
<path d="M47.4062 44.5946V34.0954C47.4062 33.467 46.8955 32.9575 46.2656 32.9575C45.6356 32.9575 45.1249 33.467 45.1249 34.0954V44.5946C45.1249 45.2231 45.6356 45.7325 46.2656 45.7325C46.8955 45.7325 47.4062 45.2231 47.4062 44.5946Z" fill="black"/>
<path d="M41.3836 44.5908L41.3228 34.0862C41.3192 33.4592 40.8056 32.9539 40.1756 32.9575C39.5457 32.9612 39.038 33.4723 39.0416 34.0993L39.1024 44.6038C39.106 45.2308 39.6197 45.7361 40.2496 45.7325C40.8795 45.7289 41.3873 45.2177 41.3836 44.5908Z" fill="black"/>
<path d="M32.9583 34.1131L33.0191 44.5904C33.0228 45.2249 33.5364 45.7362 34.1664 45.7325C34.7963 45.7288 35.304 45.2114 35.3003 44.577L35.2395 34.0996C35.2358 33.4652 34.7221 32.9538 34.0922 32.9575C33.4623 32.9612 32.9546 33.4786 32.9583 34.1131Z" fill="black"/>
</g>
<defs>
<filter id="filter0_d_6_511" x="12.4419" y="17.7344" width="46.151" height="42.9647" filterUnits="userSpaceOnUse" color-interpolation-filters="sRGB">
<feFlood flood-opacity="0" result="BackgroundImageFix"/>
<feColorMatrix in="SourceAlpha" type="matrix" values="0 0 0 0 0 0 0 0 0 0 0 0 0 0 0 0 0 0 127 0" result="hardAlpha"/>
<feOffset dy="3.04167"/>
<feGaussianBlur stdDeviation="1.21667"/>
<feColorMatrix type="matrix" values="0 0 0 0 0 0 0 0 0 0 0 0 0 0 0 0 0 0 0.5 0"/>
<feBlend mode="normal" in2="BackgroundImageFix" result="effect1_dropShadow_6_511"/>
<feBlend mode="normal" in="SourceGraphic" in2="effect1_dropShadow_6_511" result="shape"/>
</filter>
</defs>
</svg>
