<?xml version="1.0" encoding="UTF-8"?>
<svg id="Camada_1" data-name="Camada 1" xmlns="http://www.w3.org/2000/svg" viewBox="0 0 484.89 471.84">
  <defs>
    <style>
      .cls-1 {
        fill: #fff;
      }
    </style>
  </defs>
  <path class="cls-1" d="M482.15,345.33l-6.06-24.75-5.99-24.5-5.36-21.91-12.38-50.65-35.29,11.27-29.13,9.32-1.34.42-34.77,11.12,29.86-31.11,2.32-2.42-14.31-80.38-9.69-5.87-11.67-7.06V60.72l-8.54-7.53-48.49-42.7-11.91-10.49h-73.87l-11.91,10.49-48.49,42.7-8.54,7.53v68.08l-11.67,7.06-9.69,5.87-14.31,80.38,2.32,2.42,29.86,31.11-34.77-11.12-1.34-.42-29.13-9.32-35.29-11.27-12.38,50.65-5.36,21.91-5.99,24.5-6.06,24.75-2.74,11.22,35.28,11.28,30.49,9.75,7.04,2.25,19.22,6.14,11.4-6.89v-.02l6.41-26.19,5.99-24.5-11.4-3.64h-.02l-20.62-6.6-3.23-1.03-3.21,13.11-2.77,11.37-20.71-6.62-9.78-3.11,6.01-24.5,5.35-21.91,30.49,9.75,1.84.59,33.43,10.69,15.38,4.91,13.06,4.18,34.29-6.95,16.95-3.43-3.78,3.08h-.02s-.57.48-.57.48l-16.17,38.99-.62,1.5-13.56,32.68-16.39,39.58,57.18,19.17,24.73,8.3,27.65,9.27,27.94,9.37,12.66,4.24,16.41-39.56,14.18-34.19,3.27-7.89,8.93-21.56-6.83-13.81h-.02s-29.56-9.92-29.56-9.92l-27.65-9.27-5.29,12.79v.02s-9.6,23.13-9.6,23.13l-1.5,3.62,14.8,4.97,12.83,4.3-9.62,23.23-4.53,10.97-27.65-9.29-24.73-8.28,14.18-34.19.86-2.07,15.55-37.5,7.14-17.25,3.65-8.81,36.23,7.33,34.29,6.95,13.06-4.18,15.38-4.91,33.43-10.69,1.84-.59,30.49-9.75,5.35,21.91,6.01,24.5-9.78,3.11-20.71,6.62-2.77-11.37-3.21-13.11-3.23,1.03-20.62,6.6h-.02l-11.4,3.64,5.99,24.5,6.41,26.19v.02l11.4,6.89,19.22-6.14,7.04-2.25,30.49-9.75,35.28-11.28-2.74-11.22ZM154.71,160.64l18.81-18.92,36.78,48-14.11,13.69-41.48-42.77ZM288.7,203.42l-14.11-13.69,36.78-48,18.81,18.92-41.48,42.77Z"/>
</svg>